#N canvas 100 447 572 251 12;
#X obj 28 21 netreceive -u -b 12000;
#X obj 28 45 oscparse;
#X obj 28 69 list trim;
#X obj 28 93 print;
#X obj 298 210 hradio 15 1 0 8 empty empty empty 0 -8 0 10 #fcfcfc
#000000 #000000 0;
#X floatatom 298 147 5 0 0 0 - - - 0;
#X obj 333 90 + 1;
#X obj 298 70 bng 15 250 50 0 empty empty empty 17 7 0 10 #fcfcfc #000000
#000000;
#X obj 298 46 metro 0.5 120 permin;
#X obj 298 17 tgl 15 0 empty empty empty 17 7 0 10 #fcfcfc #000000
#000000 0 1;
#X msg 333 117 0;
#X obj 298 90 i;
#X floatatom 459 156 5 0 0 0 - - - 0;
#X obj 459 95 bng 15 250 50 0 empty empty empty 17 7 0 10 #fcfcfc #000000
#000000;
#X msg 488 95 0;
#X obj 506 127 + 1;
#X obj 459 127 f;
#X obj 298 176 mod 8;
#X connect 0 0 1 0;
#X connect 1 0 2 0;
#X connect 2 0 3 0;
#X connect 5 0 17 0;
#X connect 6 0 11 1;
#X connect 7 0 11 0;
#X connect 8 0 7 0;
#X connect 9 0 8 0;
#X connect 10 0 11 1;
#X connect 11 0 5 0;
#X connect 11 0 6 0;
#X connect 13 0 16 0;
#X connect 14 0 16 1;
#X connect 15 0 16 1;
#X connect 16 0 12 0;
#X connect 16 0 15 0;
#X connect 17 0 4 0;
